<svg width="24" height="24" viewBox="0 0 24 24" fill="none" xmlns="http://www.w3.org/2000/svg">
<path d="M12 12.8721C11.7393 12.8718 11.4857 12.9576 11.2788 13.1163C11.0719 13.275 10.9232 13.4976 10.8558 13.7495C10.7885 14.0014 10.8062 14.2685 10.9064 14.5093C11.0065 14.7501 11.1834 14.951 11.4095 15.0809V16.397H12.5905V15.0809C12.8165 14.9509 12.9932 14.75 13.0932 14.5092C13.1933 14.2685 13.211 14.0015 13.1437 13.7497C13.0763 13.4978 12.9277 13.2753 12.7209 13.1166C12.5141 12.9579 12.2607 12.8719 12 12.8721Z" fill="white"/>
<path d="M12.0006 7.13013C11.522 7.13065 11.0632 7.32099 10.7248 7.65939C10.3864 7.9978 10.1961 8.45662 10.1956 8.93519V10.8573H13.8051V8.93519C13.8045 8.45674 13.6142 7.99804 13.276 7.65967C12.9377 7.32131 12.4791 7.13087 12.0006 7.13013Z" fill="white"/>
<path d="M12 0.614014C5.71143 0.614014 0.61377 5.71167 0.61377 11.9997C0.613809 15.0195 1.81344 17.9156 3.94877 20.0509C6.0841 22.1863 8.98021 23.3859 12 23.3859C18.288 23.3859 23.3863 18.2878 23.3863 11.9997C23.3863 5.71159 18.288 0.614014 12 0.614014ZM16.8367 16.5157C16.8367 16.6914 16.8021 16.8654 16.7349 17.0278C16.6676 17.1901 16.5691 17.3376 16.4448 17.4619C16.3206 17.5861 16.173 17.6847 16.0107 17.752C15.8483 17.8192 15.6743 17.8538 15.4986 17.8538H8.502C8.32626 17.8538 8.15222 17.8193 7.98984 17.7521C7.82746 17.6848 7.67992 17.5863 7.55565 17.462C7.43137 17.3377 7.33281 17.1902 7.26557 17.0278C7.19834 16.8654 7.16376 16.6914 7.16381 16.5157V12.1953C7.16391 11.8882 7.26958 11.5905 7.46311 11.352C7.65665 11.1136 7.92627 10.949 8.22678 10.8857V8.93509C8.22678 7.93429 8.62434 6.97447 9.33202 6.2668C10.0397 5.55912 10.9995 5.16156 12.0003 5.16156C13.0011 5.16156 13.9609 5.55912 14.6686 6.2668C15.3763 6.97447 15.7738 7.93429 15.7738 8.93509V10.8857C16.0742 10.9491 16.3437 11.1138 16.5371 11.3522C16.7305 11.5906 16.8361 11.8883 16.8362 12.1953V16.5157H16.8367Z" fill="white"/>
</svg>
