<svg width="96" height="96" viewBox="0 0 96 96" fill="none" xmlns="http://www.w3.org/2000/svg">
<g style="mix-blend-mode:multiply">
<rect width="96" height="96" rx="48" fill="#B0B0B0"/>
</g>
<g filter="url(#filter0_d_5298_21006)">
<path d="M43.3015 58.2663L41.7444 56.7229C39.4634 54.442 38.2068 51.4098 38.2068 48.1727C38.2068 44.9356 39.4634 41.9034 41.758 39.6088C44.0527 37.3415 47.0712 36.0849 50.281 36.0849C52.9034 36.0849 55.3893 36.918 57.479 38.4615C58.2576 37.8741 59.118 37.3961 60.0605 37C61.5356 36.399 63.079 36.0985 64.6634 36.0985C66.2478 36.0985 67.8049 36.399 69.321 37.0273C70.7688 37.642 72.0663 38.5024 73.1863 39.6088C73.2 39.6224 73.2273 39.6498 73.241 39.6634C74.1424 40.5785 74.88 41.6302 75.4537 42.7639C75.8088 41.4527 76 40.1005 76 38.721C76 36.6585 75.6039 34.6371 74.8117 32.7249C74.0332 30.8127 72.8859 29.0917 71.3971 27.6166C69.9493 26.1688 68.242 25.0215 66.3024 24.202C62.4371 22.6176 58.1073 22.6176 54.2693 24.202C52.3434 25.0078 50.6361 26.1551 49.1883 27.6029L48 28.7912L46.8117 27.6029C43.8888 24.68 39.8459 23 35.7073 23C31.5688 23 27.5259 24.68 24.6029 27.6029C21.639 30.5668 20 34.5141 20 38.7073C20 42.9005 21.639 46.8615 24.6029 49.8254L46.5522 71.7746C46.9346 72.1571 47.4537 72.3756 48 72.3756C48.5463 72.3756 49.0654 72.1571 49.4478 71.7746L53.122 68.0868L43.3015 58.2663Z" fill="white"/>
<path d="M72.0525 45.1124C71.6427 44.1426 71.0554 43.2685 70.3179 42.5173C69.5666 41.7797 68.6925 41.1924 67.7227 40.7826C66.753 40.3865 65.7149 40.1816 64.6632 40.1816C63.6115 40.1816 62.5735 40.3865 61.6037 40.7826C60.634 41.1924 59.7598 41.7797 59.0222 42.5173L57.4788 44.0607L55.9354 42.5173C54.433 41.0285 52.4115 40.1816 50.2808 40.1816C48.1501 40.1816 46.1422 41.0285 44.6398 42.5173C43.1374 44.0197 42.3042 46.0548 42.3042 48.1719C42.3042 50.289 43.1374 52.3241 44.6398 53.8265L46.1832 55.3563L56.0174 65.1904C56.8096 64.3846 56.8096 63.087 56.0174 62.2948L46.0876 52.3787C44.9676 51.2587 44.353 49.7699 44.353 48.1719C44.353 46.5738 44.9676 45.0851 46.0876 43.9787C47.2213 42.8587 48.7101 42.2304 50.2808 42.2304C51.8515 42.2304 53.354 42.8451 54.4876 43.9651L56.031 45.5085C56.8369 46.3143 58.1344 46.3143 58.9266 45.5085L60.4701 43.9651C61.0301 43.4187 61.672 42.9816 62.3822 42.6812C63.8437 42.0802 65.5237 42.0938 66.9305 42.6812C67.6544 42.9816 68.3101 43.4324 68.8564 43.9651C69.4164 44.5387 69.8535 45.1943 70.1266 45.8226C70.1266 45.8363 70.1813 45.9592 70.1813 45.9729C70.3862 46.7787 71.0691 47.3933 71.9022 47.5026C72.1344 47.5299 72.3666 47.5026 72.5852 47.4616C72.5169 46.7787 72.4076 46.1094 72.1754 45.4675C72.1481 45.3582 72.0935 45.2353 72.0525 45.126V45.1124Z" fill="white"/>
<path d="M72.6535 48.1719C72.6535 49.2236 72.4486 50.2616 72.0525 51.2314C71.6427 52.2012 71.0554 53.0753 70.3179 53.8265L68.7744 55.3563L57.4788 66.6519L46.1832 55.3563L44.6398 53.8265C43.1374 52.3241 42.3042 50.289 42.3042 48.1719C42.3042 46.0548 43.1374 44.0197 44.6398 42.5173C46.1422 41.0285 48.1637 40.1816 50.2808 40.1816C52.3979 40.1816 54.433 41.0285 55.9354 42.5173L57.4788 44.0607L59.0222 42.5173C59.7598 41.7797 60.634 41.1924 61.6037 40.7826C62.5735 40.3865 63.6115 40.1816 64.6632 40.1816C65.7149 40.1816 66.753 40.3865 67.7227 40.7826C68.6925 41.1924 69.5666 41.7797 70.3179 42.5173C71.0554 43.2685 71.6427 44.1426 72.0525 45.1124C72.0935 45.2216 72.1481 45.3446 72.1754 45.4538C72.4896 46.328 72.6535 47.2431 72.6535 48.1719Z" fill="white"/>
</g>
<defs>
<filter id="filter0_d_5298_21006" x="14.44" y="23" width="67.12" height="60.495" filterUnits="userSpaceOnUse" color-interpolation-filters="sRGB">
<feFlood flood-opacity="0" result="BackgroundImageFix"/>
<feColorMatrix in="SourceAlpha" type="matrix" values="0 0 0 0 0 0 0 0 0 0 0 0 0 0 0 0 0 0 127 0" result="hardAlpha"/>
<feOffset dy="5.56"/>
<feGaussianBlur stdDeviation="2.78"/>
<feComposite in2="hardAlpha" operator="out"/>
<feColorMatrix type="matrix" values="0 0 0 0 0 0 0 0 0 0 0 0 0 0 0 0 0 0 0.25 0"/>
<feBlend mode="normal" in2="BackgroundImageFix" result="effect1_dropShadow_5298_21006"/>
<feBlend mode="normal" in="SourceGraphic" in2="effect1_dropShadow_5298_21006" result="shape"/>
</filter>
</defs>
</svg>
