<svg width="96" height="96" viewBox="0 0 96 96" fill="none" xmlns="http://www.w3.org/2000/svg">
<g style="mix-blend-mode:multiply">
<rect width="96" height="96" rx="48" fill="#B0B0B0"/>
</g>
<g filter="url(#filter0_d_5298_20990)">
<path d="M76 38.7368C76 40.6821 75.6168 42.5979 74.88 44.3811C74.6442 44.9411 74.3789 45.4863 74.0842 46.0168C74.0547 45.8989 73.9958 45.7663 73.9516 45.6484C73.5095 44.6021 72.8758 43.6589 72.08 42.8484C71.2695 42.0526 70.3263 41.4189 69.28 40.9768C68.2337 40.5495 67.1137 40.3284 65.9789 40.3284C64.8442 40.3284 63.7242 40.5495 62.6779 40.9768C61.6316 41.4189 60.6884 42.0526 59.8926 42.8484L58.2274 44.5137L56.5621 42.8484C54.9411 41.2421 52.76 40.3284 50.4611 40.3284C48.1621 40.3284 45.9958 41.2421 44.3747 42.8484C42.7537 44.4695 41.8547 46.6653 41.8547 48.9495C41.8547 51.2337 42.7537 53.4295 44.3747 55.0505L46.04 56.7011L55.0884 65.7495L48 72.8526L27.1621 52L24.3179 49.1705C21.5474 46.4 20 42.6568 20 38.7368C20 34.8168 21.5474 31.0884 24.3179 28.3179C27.0884 25.5474 30.8316 24 34.7368 24C38.6421 24 42.4 25.5621 45.1558 28.3179L48 31.1621L50.8442 28.3179C52.2147 26.9474 53.8358 25.8716 55.6189 25.12C57.4021 24.3832 59.3179 24 61.2632 24C63.2084 24 65.1095 24.3832 66.9074 25.12C68.6905 25.8716 70.3116 26.9474 71.6821 28.3179C73.0526 29.6884 74.1432 31.3095 74.88 33.1074C75.6168 34.8905 76 36.8063 76 38.7368Z" stroke="white" stroke-width="4" stroke-linecap="round" stroke-linejoin="round"/>
<path d="M74.6002 48.9492C74.6002 50.0839 74.3792 51.2039 73.9518 52.2502C73.5097 53.2965 72.876 54.2397 72.0802 55.0502L70.415 56.7008L58.2276 68.8881L46.0402 56.7008L44.375 55.0502C42.7539 53.4292 41.855 51.2334 41.855 48.9492C41.855 46.665 42.7539 44.4692 44.375 42.8481C45.996 41.2418 48.1771 40.3281 50.4613 40.3281C52.7455 40.3281 54.9413 41.2418 56.5623 42.8481L58.2276 44.5134L59.8929 42.8481C60.6887 42.0523 61.6318 41.4187 62.6781 40.9765C63.7245 40.5492 64.8445 40.3281 65.9792 40.3281C67.1139 40.3281 68.2339 40.5492 69.2802 40.9765C70.3266 41.4187 71.2697 42.0523 72.0802 42.8481C72.876 43.6587 73.5097 44.6018 73.9518 45.6481C73.996 45.766 74.055 45.8987 74.0845 46.0165C74.4234 46.9597 74.6002 47.9471 74.6002 48.9492Z" stroke="white" stroke-width="4" stroke-linecap="round" stroke-linejoin="round"/>
</g>
<defs>
<filter id="filter0_d_5298_20990" x="12.44" y="22" width="71.12" height="63.9735" filterUnits="userSpaceOnUse" color-interpolation-filters="sRGB">
<feFlood flood-opacity="0" result="BackgroundImageFix"/>
<feColorMatrix in="SourceAlpha" type="matrix" values="0 0 0 0 0 0 0 0 0 0 0 0 0 0 0 0 0 0 127 0" result="hardAlpha"/>
<feOffset dy="5.56"/>
<feGaussianBlur stdDeviation="2.78"/>
<feComposite in2="hardAlpha" operator="out"/>
<feColorMatrix type="matrix" values="0 0 0 0 0 0 0 0 0 0 0 0 0 0 0 0 0 0 0.25 0"/>
<feBlend mode="normal" in2="BackgroundImageFix" result="effect1_dropShadow_5298_20990"/>
<feBlend mode="normal" in="SourceGraphic" in2="effect1_dropShadow_5298_20990" result="shape"/>
</filter>
</defs>
</svg>
